<?xml version="1.0" encoding="utf-8"?>
<!-- Generator: Adobe Illustrator 23.1.0, SVG Export Plug-In . SVG Version: 6.00 Build 0)  -->
<svg version="1.1" xmlns="http://www.w3.org/2000/svg" xmlns:xlink="http://www.w3.org/1999/xlink" x="0px" y="0px"
	 viewBox="0 0 1200 1200" style="enable-background:new 0 0 1200 1200;" xml:space="preserve">
<style type="text/css">
	.st0{fill:#F3F6FA;}
	.st1{fill:#D4F1F3;}
	.st2{fill:#C7D8FD;}
	.st3{fill:#FABBD8;}
	.st4{fill:#FCE088;}
	.st5{fill:#6179EF;}
	.st6{fill:#F1F6FF;}
	.st7{fill:#D0E2FF;}
	.st8{fill:url(#SVGID_1_);}
	.st9{opacity:0.19;fill:#0B1066;}
	.st10{fill:#99A2EB;}
	.st11{fill:#FFFFFF;}
	.st12{fill:#B4D1FF;}
	.st13{fill:#F2F5F9;}
	.st14{fill:none;stroke:#F5634A;stroke-miterlimit:10;}
	.st15{fill:#FFFFFF;stroke:#F5634A;stroke-miterlimit:10;}
	.st16{fill:url(#SVGID_2_);}
	.st17{fill:#856CF2;}
	.st18{fill:#F9BC00;}
	.st19{fill:#F16261;}
	.st20{fill:url(#SVGID_3_);}
	.st21{fill:url(#SVGID_4_);}
	.st22{fill:#DEE8FF;}
	.st23{fill:#B0CAE0;}
	.st24{fill:#53C8CE;}
	.st25{fill:#E5ECF5;}
	.st26{fill:#FACA00;}
	.st27{opacity:0.19;}
	.st28{fill:#0B1066;}
	.st29{fill:#5DD777;}
	.st30{fill:url(#SVGID_5_);}
	.st31{fill:#F5634A;}
	.st32{fill:url(#SVGID_6_);}
	.st33{fill:#FBD72A;}
	.st34{fill:url(#SVGID_7_);}
	.st35{fill:#B6D2FF;}
	.st36{fill:#F56463;}
	.st37{fill:#FDEBE5;}
	.st38{fill:#F9D62B;}
	.st39{fill:#FEFFF9;}
	.st40{fill:#1D2088;}
	.st41{fill:url(#SVGID_8_);}
	.st42{fill:#8E74F3;}
	.st43{fill:#F66463;}
	.st44{fill:#2C6FFF;}
	.st45{fill:#EFB594;}
	.st46{fill:#241F4B;}
	.st47{fill:#2942C5;}
	.st48{fill:url(#SVGID_9_);}
	.st49{fill:#150B48;}
	.st50{fill:#423566;}
	.st51{fill:#FBCFBC;}
	.st52{fill:#E04034;}
	.st53{fill:url(#SVGID_10_);}
	.st54{fill:#C1DEFF;}
	.st55{fill:#193C87;}
	.st56{fill:#E5E6EB;}
	.st57{fill:#D1AA05;}
	.st58{fill:url(#SVGID_11_);}
	.st59{fill:#9175F5;}
	.st60{fill:#8AAAFF;}
	.st61{fill:url(#SVGID_12_);}
	.st62{fill:#10224F;}
	.st63{fill:#211D42;}
	.st64{fill:#322D76;}
	.st65{fill:#E84538;}
	.st66{fill:url(#SVGID_13_);}
	.st67{fill:#222220;}
	.st68{fill:url(#SVGID_14_);}
	.st69{fill:#5B9BFD;}
	.st70{fill:#EC6941;}
	.st71{fill:#EB3F17;}
	.st72{fill:#E59A05;}
	.st73{fill:#1A96CF;}
	.st74{fill:#193D9D;}
	.st75{fill:#365ECE;}
	.st76{fill:url(#SVGID_15_);}
	.st77{fill:url(#SVGID_16_);}
	.st78{fill:#F385B5;}
	.st79{fill:#E26DA5;}
	.st80{fill:url(#SVGID_17_);}
	.st81{fill:#2A5CD0;}
	.st82{fill:#F7F8F8;}
	.st83{fill:url(#SVGID_18_);}
	.st84{fill:url(#SVGID_19_);}
	.st85{fill:#DCE7FF;}
	.st86{fill:#3970FF;}
	.st87{fill:url(#SVGID_20_);}
	.st88{fill:#FCBD1F;}
	.st89{clip-path:url(#SVGID_22_);fill:#718BEA;}
	.st90{clip-path:url(#SVGID_22_);fill:#708AEA;}
	.st91{clip-path:url(#SVGID_22_);fill:#6F89EB;}
	.st92{clip-path:url(#SVGID_22_);fill:#6E88EB;}
	.st93{clip-path:url(#SVGID_22_);fill:#6D87EB;}
	.st94{clip-path:url(#SVGID_22_);fill:#6C86EB;}
	.st95{clip-path:url(#SVGID_22_);fill:#6B85EC;}
	.st96{clip-path:url(#SVGID_22_);fill:#6A84EC;}
	.st97{clip-path:url(#SVGID_22_);fill:#6983EC;}
	.st98{clip-path:url(#SVGID_22_);fill:#6981ED;}
	.st99{clip-path:url(#SVGID_22_);fill:#6880ED;}
	.st100{clip-path:url(#SVGID_22_);fill:#677FED;}
	.st101{clip-path:url(#SVGID_22_);fill:#667EEE;}
	.st102{clip-path:url(#SVGID_22_);fill:#657DEE;}
	.st103{clip-path:url(#SVGID_22_);fill:#647CEE;}
	.st104{clip-path:url(#SVGID_22_);fill:#637BEE;}
	.st105{clip-path:url(#SVGID_22_);fill:#627AEF;}
	.st106{clip-path:url(#SVGID_22_);fill:#6179EF;}
	.st107{clip-path:url(#SVGID_24_);fill:#718BEA;}
	.st108{clip-path:url(#SVGID_24_);fill:#708AEA;}
	.st109{clip-path:url(#SVGID_24_);fill:#6F89EB;}
	.st110{clip-path:url(#SVGID_24_);fill:#6E88EB;}
	.st111{clip-path:url(#SVGID_24_);fill:#6D87EB;}
	.st112{clip-path:url(#SVGID_24_);fill:#6C86EB;}
	.st113{clip-path:url(#SVGID_24_);fill:#6B85EC;}
	.st114{clip-path:url(#SVGID_24_);fill:#6A84EC;}
	.st115{clip-path:url(#SVGID_24_);fill:#6983EC;}
	.st116{clip-path:url(#SVGID_24_);fill:#6981ED;}
	.st117{clip-path:url(#SVGID_24_);fill:#6880ED;}
	.st118{clip-path:url(#SVGID_24_);fill:#677FED;}
	.st119{clip-path:url(#SVGID_24_);fill:#667EEE;}
	.st120{clip-path:url(#SVGID_24_);fill:#657DEE;}
	.st121{clip-path:url(#SVGID_24_);fill:#647CEE;}
	.st122{clip-path:url(#SVGID_24_);fill:#637BEE;}
	.st123{clip-path:url(#SVGID_24_);fill:#627AEF;}
	.st124{clip-path:url(#SVGID_24_);fill:#6179EF;}
	.st125{fill:#6252DB;}
	.st126{fill:url(#SVGID_25_);}
	.st127{fill:url(#SVGID_26_);}
	.st128{clip-path:url(#SVGID_28_);fill:#202875;}
	.st129{clip-path:url(#SVGID_28_);fill:#202774;}
	.st130{clip-path:url(#SVGID_28_);fill:#202773;}
	.st131{clip-path:url(#SVGID_28_);fill:#1F2672;}
	.st132{clip-path:url(#SVGID_28_);fill:#1F2571;}
	.st133{clip-path:url(#SVGID_28_);fill:#1F2570;}
	.st134{clip-path:url(#SVGID_28_);fill:#1F246F;}
	.st135{clip-path:url(#SVGID_28_);fill:#1E236E;}
	.st136{clip-path:url(#SVGID_28_);fill:#1E236D;}
	.st137{clip-path:url(#SVGID_28_);fill:#1E226C;}
	.st138{clip-path:url(#SVGID_28_);fill:#1E226B;}
	.st139{clip-path:url(#SVGID_28_);fill:#1D216A;}
	.st140{clip-path:url(#SVGID_28_);fill:#1D2069;}
	.st141{clip-path:url(#SVGID_28_);fill:#1D2068;}
	.st142{clip-path:url(#SVGID_28_);fill:#1D1F67;}
	.st143{clip-path:url(#SVGID_28_);fill:#1C1E66;}
	.st144{clip-path:url(#SVGID_28_);fill:#1C1E65;}
	.st145{clip-path:url(#SVGID_28_);fill:#1C1D64;}
	.st146{clip-path:url(#SVGID_28_);fill:#1C1C63;}
	.st147{clip-path:url(#SVGID_28_);fill:#1B1C62;}
	.st148{clip-path:url(#SVGID_28_);fill:#1B1B61;}
	.st149{clip-path:url(#SVGID_28_);fill:#1B1A60;}
	.st150{clip-path:url(#SVGID_28_);fill:#1B1A5F;}
	.st151{clip-path:url(#SVGID_28_);fill:#1A195E;}
	.st152{clip-path:url(#SVGID_28_);fill:#1A195D;}
	.st153{clip-path:url(#SVGID_28_);fill:#1A185B;}
	.st154{clip-path:url(#SVGID_28_);fill:#1A175A;}
	.st155{clip-path:url(#SVGID_28_);fill:#191759;}
	.st156{clip-path:url(#SVGID_28_);fill:#191658;}
	.st157{clip-path:url(#SVGID_28_);fill:#191557;}
	.st158{clip-path:url(#SVGID_28_);fill:#191556;}
	.st159{clip-path:url(#SVGID_28_);fill:#181455;}
	.st160{clip-path:url(#SVGID_28_);fill:#181354;}
	.st161{clip-path:url(#SVGID_28_);fill:#181353;}
	.st162{clip-path:url(#SVGID_28_);fill:#181252;}
	.st163{clip-path:url(#SVGID_28_);fill:#171151;}
	.st164{clip-path:url(#SVGID_28_);fill:#171150;}
	.st165{clip-path:url(#SVGID_28_);fill:#17104F;}
	.st166{clip-path:url(#SVGID_28_);fill:#170F4E;}
	.st167{clip-path:url(#SVGID_28_);fill:#160F4D;}
	.st168{clip-path:url(#SVGID_28_);fill:#160E4C;}
	.st169{clip-path:url(#SVGID_28_);fill:#160E4B;}
	.st170{clip-path:url(#SVGID_28_);fill:#160D4A;}
	.st171{clip-path:url(#SVGID_28_);fill:#150C49;}
	.st172{clip-path:url(#SVGID_28_);fill:#150C48;}
	.st173{clip-path:url(#SVGID_28_);fill:#150B47;}
	.st174{clip-path:url(#SVGID_28_);fill:#150A46;}
	.st175{clip-path:url(#SVGID_28_);fill:#140A45;}
	.st176{clip-path:url(#SVGID_28_);fill:#140944;}
	.st177{fill:url(#SVGID_29_);}
	.st178{fill:#90BCFC;}
	.st179{fill:#191759;}
	.st180{fill:#B6D7FF;}
	.st181{fill:url(#SVGID_30_);}
	.st182{fill:url(#SVGID_31_);}
	.st183{fill:url(#SVGID_32_);}
	.st184{fill:url(#SVGID_33_);}
	.st185{fill:url(#SVGID_34_);}
	.st186{fill:#DBA203;}
	.st187{fill:url(#SVGID_35_);}
	.st188{fill:url(#SVGID_36_);}
	.st189{fill:url(#SVGID_37_);}
	.st190{fill:url(#SVGID_38_);}
	.st191{fill:url(#SVGID_39_);}
	.st192{fill:url(#SVGID_40_);}
	.st193{fill:#353B42;}
	.st194{fill:url(#SVGID_41_);}
	.st195{fill:url(#SVGID_42_);}
	.st196{fill:#F6AA94;}
	.st197{fill:url(#SVGID_43_);}
	.st198{fill:url(#SVGID_44_);}
	.st199{fill:#F3BE3E;}
	.st200{fill:#FACE46;}
	.st201{fill:url(#SVGID_45_);}
</style>
<g id="暂无内容">
	<g>
		<path class="st0" d="M553.72,278.8c-39.72-5.93-182.81-112.85-297.59-51.86c-193.7,102.92-66.6,277.85-136.81,347.62
			c-71.76,71.31-144.37,296.48,69.5,384.5s509.67,53.4,603.39,10.26c93.72-43.14,138.7-55.97,247.02-107.37
			c156.8-74.4,190.79-618-124.72-607.53C860.72,254.42,685.19,298.43,553.72,278.8z"/>
		<path class="st9" d="M320.57,316.15c-9.39,0-17.42,5.77-20.77,13.95l-8.94,1.73l-8.34-53.93L151.2,295.69l17.79,131.73l55.82-8.68
			l1.67,8.76c-5.93,4.04-9.83,10.84-9.83,18.56c0,12.4,10.05,22.45,22.45,22.45c12.4,0,22.45-10.05,22.45-22.45
			c0-9.8-6.29-18.11-15.04-21.17l-1.66-9.27l57.56-8.95l-8.02-51.86l9.08-1.67c4.12,4.83,10.24,7.91,17.09,7.91
			c12.4,0,22.45-10.05,22.45-22.45C343.02,326.2,332.96,316.15,320.57,316.15z"/>
		<path class="st24" d="M311.95,314.2c-8.91,0-16.53,5.47-19.72,13.24l-8.49,1.65l-7.91-51.19L151.2,294.78l16.89,125.03l52.98-8.24
			l1.58,8.31c-5.63,3.84-9.33,10.29-9.33,17.62c0,11.77,9.54,21.31,21.31,21.31c11.77,0,21.31-9.54,21.31-21.31
			c0-9.3-5.97-17.19-14.28-20.1l-1.57-8.8l54.64-8.5l-7.61-49.22l8.62-1.59c3.91,4.59,9.72,7.51,16.22,7.51
			c11.77,0,21.31-9.54,21.31-21.31C333.26,323.74,323.72,314.2,311.95,314.2z"/>
		<path class="st9" d="M468.11,276.54l-11.77-3.47l-42.67,14.67l-2.36-9.7c5.14-4.28,8.42-10.73,8.42-17.94
			c0-12.89-10.45-23.34-23.34-23.34c-12.89,0-23.34,10.45-23.34,23.34c0,10.36,6.76,19.14,16.1,22.19l2.11,10.07l-58,11.94
			l13.28,56.38l8.37-2.64c0,0,3.88-12.3,19.08-14.06c15.2-1.76,24.17,9.36,25.74,19.6c1.68,10.98-4.52,22.66-17.51,25.3
			s-19.38-1.54-23.34-6.61c-4.4,1.1-9.53,2.78-9.53,2.78l9.13,50.08l137.88-26.19L468.11,276.54z"/>
		<path class="st17" d="M456.35,273.07l-49.69,10.22l-2.15-8.86c4.69-3.91,7.68-9.79,7.68-16.38c0-11.77-9.54-21.31-21.31-21.31
			c-11.77,0-21.31,9.54-21.31,21.31c0,9.46,6.17,17.47,14.7,20.25l1.93,9.19l-52.94,10.89l12.12,51.46l7.64-2.41
			c0,0,3.55-11.23,17.42-12.84c13.87-1.61,22.06,8.54,23.49,17.89c1.54,10.02-4.12,20.68-15.98,23.09s-17.69-1.41-21.31-6.03
			c-4.02,1-8.69,2.54-8.69,2.54l10.5,49.93l125.85-23.9L456.35,273.07z"/>
		<g>
			<path class="st9" d="M1025.06,590.72H834.71c-4.48,0-8.11-3.63-8.11-8.11V287.74c0-4.48,3.63-8.11,8.11-8.11h190.35
				c4.48,0,8.11,3.63,8.11,8.11v294.87C1033.17,587.09,1029.54,590.72,1025.06,590.72z"/>
			<linearGradient id="SVGID_1_" gradientUnits="userSpaceOnUse" x1="826.6081" y1="428.287" x2="1020.1905" y2="428.287">
				<stop  offset="0" style="stop-color:#718BEA"/>
				<stop  offset="1" style="stop-color:#6179EF"/>
			</linearGradient>
			<path class="st8" d="M1014.35,576.94h-181.9c-3.23,0-5.84-2.61-5.84-5.84V285.47c0-3.23,2.61-5.84,5.84-5.84h181.9
				c3.23,0,5.84,2.61,5.84,5.84V571.1C1020.19,574.33,1017.58,576.94,1014.35,576.94z"/>
			<g>
				<rect x="860.99" y="389.99" class="st11" width="14.93" height="85.94"/>
				<rect x="883.34" y="341.14" class="st11" width="14.93" height="134.78"/>
				<rect x="905.68" y="382.76" class="st11" width="14.93" height="93.17"/>
				<rect x="928.02" y="443.06" class="st11" width="14.93" height="32.87"/>
				<rect x="950.37" y="369.49" class="st11" width="14.93" height="106.44"/>
				<rect x="972.71" y="386.07" class="st11" width="14.93" height="89.86"/>
			</g>
			<path class="st11" d="M951.95,522.06h-53.32c-2.3,0-4.17-1.87-4.17-4.17v-20.76c0-2.3,1.87-4.17,4.17-4.17h53.32
				c2.3,0,4.17,1.87,4.17,4.17v20.76C956.13,520.2,954.26,522.06,951.95,522.06z"/>
			<circle class="st11" cx="908.94" cy="553.62" r="3.62"/>
			<circle class="st11" cx="925.29" cy="553.62" r="3.62"/>
			<circle class="st11" cx="940.27" cy="553.62" r="3.62"/>
			<path class="st11" d="M961.38,311.9h-75.96c-0.97,0-1.76-0.79-1.76-1.76v-8.75c0-0.97,0.79-1.76,1.76-1.76h75.96
				c0.97,0,1.76,0.79,1.76,1.76v8.75C963.14,311.11,962.35,311.9,961.38,311.9z"/>
		</g>
		<rect x="526.58" y="759.49" class="st5" width="161.76" height="115.17"/>
		<linearGradient id="SVGID_2_" gradientUnits="userSpaceOnUse" x1="296.353" y1="604.6984" x2="918.5756" y2="604.6984">
			<stop  offset="0" style="stop-color:#405AB1"/>
			<stop  offset="1" style="stop-color:#0B1066"/>
		</linearGradient>
		<path class="st16" d="M909.54,790.47H305.38c-4.99,0-9.03-4.04-9.03-9.03V427.96c0-4.99,4.04-9.03,9.03-9.03h604.16
			c4.99,0,9.03,4.04,9.03,9.03v353.47C918.58,786.42,914.53,790.47,909.54,790.47z"/>
		<path class="st11" d="M891.43,739.78H323.5c-0.55,0-0.99-0.44-0.99-0.99V442.64c0-0.55,0.44-0.99,0.99-0.99h567.93
			c0.55,0,0.99,0.44,0.99,0.99v296.15C892.42,739.33,891.97,739.78,891.43,739.78z"/>
		<linearGradient id="SVGID_3_" gradientUnits="userSpaceOnUse" x1="435.4721" y1="866.1454" x2="779.4565" y2="866.1454">
			<stop  offset="0" style="stop-color:#405AB1"/>
			<stop  offset="1" style="stop-color:#0B1066"/>
		</linearGradient>
		<path class="st20" d="M775.63,880.34H439.3c-2.12,0-3.83-1.71-3.83-3.83v-20.72c0-2.12,1.71-3.83,3.83-3.83h336.32
			c2.12,0,3.83,1.71,3.83,3.83v20.72C779.46,878.62,777.74,880.34,775.63,880.34z"/>
		<path class="st31" d="M1081.15,969.79H642.37c-2.25,0-4.07-1.82-4.07-4.07v-20.24c0-2.25,1.82-4.07,4.07-4.07h438.78
			c2.25,0,4.07,1.82,4.07,4.07v20.24C1085.22,967.97,1083.4,969.79,1081.15,969.79z"/>
		<path class="st31" d="M1081.15,907.12H895.93c-2.25,0-4.07-1.82-4.07-4.07v-20.24c0-2.25,1.82-4.07,4.07-4.07h185.21
			c2.25,0,4.07,1.82,4.07,4.07v20.24C1085.22,905.3,1083.4,907.12,1081.15,907.12z"/>
		<path class="st29" d="M743.15,291.11h-81.88c-9.31,0-16.85,7.54-16.85,16.85v39.14c0,9.31,7.54,16.85,16.85,16.85h40.94v26.65
			l31.3-26.65h9.64c9.31,0,16.85-7.54,16.85-16.85v-39.14C760,298.65,752.46,291.11,743.15,291.11z"/>
		<path class="st0" d="M699.87,716.87H568.26c-3.72,0-6.74-3.02-6.74-6.74V556.54c0-3.72,3.02-6.74,6.74-6.74h131.61
			c3.72,0,6.74,3.02,6.74,6.74v153.59C706.61,713.85,703.59,716.87,699.87,716.87z"/>
		<path class="st31" d="M699.87,716.87H568.26c-3.72,0-6.74-3.02-6.74-6.74v-42.71h145.09v42.71
			C706.61,713.85,703.59,716.87,699.87,716.87z"/>
		<path class="st0" d="M864.96,716.87H733.36c-3.72,0-6.74-3.02-6.74-6.74V556.54c0-3.72,3.02-6.74,6.74-6.74h131.61
			c3.72,0,6.74,3.02,6.74,6.74v153.59C871.7,713.85,868.69,716.87,864.96,716.87z"/>
		<path class="st18" d="M864.96,716.87H733.36c-3.72,0-6.74-3.02-6.74-6.74v-42.71H871.7v42.71
			C871.7,713.85,868.69,716.87,864.96,716.87z"/>
		<path class="st18" d="M801.47,581.83l5.88,11.92c0.58,1.18,1.7,1.99,3,2.18l13.16,1.91c3.27,0.48,4.58,4.49,2.21,6.8l-9.52,9.28
			c-0.94,0.92-1.37,2.24-1.15,3.53l2.25,13.1c0.56,3.26-2.86,5.74-5.79,4.2l-11.77-6.19c-1.16-0.61-2.55-0.61-3.71,0l-11.77,6.19
			c-2.93,1.54-6.34-0.95-5.79-4.2l2.25-13.1c0.22-1.29-0.21-2.61-1.15-3.53l-9.52-9.28c-2.37-2.31-1.06-6.33,2.21-6.8l13.16-1.91
			c1.3-0.19,2.42-1,3-2.18l5.88-11.92C795.78,578.86,800.01,578.86,801.47,581.83z"/>
		<path class="st31" d="M665.87,610.11l-30.44-30.44c-1.05-1.05-2.75-1.05-3.8,0l-30.44,30.44c-1.05,1.05-1.05,2.75,0,3.8
			l30.44,30.44c1.05,1.05,2.75,1.05,3.8,0l30.44-30.44C666.92,612.86,666.92,611.16,665.87,610.11z"/>
		<rect x="344.39" y="458.81" class="st54" width="527.31" height="66.68"/>
		<path class="st54" d="M536.34,612.95H347.03c-1.46,0-2.64-1.18-2.64-2.64V548.9c0-1.46,1.18-2.64,2.64-2.64h189.31
			c1.46,0,2.64,1.18,2.64,2.64v61.41C538.98,611.77,537.8,612.95,536.34,612.95z"/>
		<path class="st54" d="M536.6,646.46H346.78c-1.32,0-2.38-1.07-2.38-2.38v-11.86c0-1.32,1.07-2.38,2.38-2.38H536.6
			c1.32,0,2.38,1.07,2.38,2.38v11.86C538.98,645.4,537.91,646.46,536.6,646.46z"/>
		<path class="st54" d="M536.6,680H346.78c-1.32,0-2.38-1.07-2.38-2.38v-11.86c0-1.32,1.07-2.38,2.38-2.38H536.6
			c1.32,0,2.38,1.07,2.38,2.38v11.86C538.98,678.94,537.91,680,536.6,680z"/>
		<path class="st54" d="M536.6,713.54H346.78c-1.32,0-2.38-1.07-2.38-2.38v-11.86c0-1.32,1.07-2.38,2.38-2.38H536.6
			c1.32,0,2.38,1.07,2.38,2.38v11.86C538.98,712.48,537.91,713.54,536.6,713.54z"/>
		<path class="st9" d="M480.94,950.19h-4.6V647.81V589.1c0-7.5-6.29-13.57-14.05-13.57H226.71c-7.76,0-14.05,6.08-14.05,13.57v58.71
			v302.54c-7.77,0.77-13.85,7.04-13.85,14.75c0,8.23,6.91,14.91,15.43,14.91h266.7c8.52,0,15.42-6.67,15.42-14.91
			C496.36,956.86,489.46,950.19,480.94,950.19z"/>
		<g>
			<path class="st54" d="M455.24,963.62H216.01c-2.31,0-4.19-1.88-4.19-4.19V579.72c0-2.31,1.88-4.19,4.19-4.19h239.23
				c2.31,0,4.19,1.88,4.19,4.19v379.71C459.43,961.74,457.56,963.62,455.24,963.62z"/>
			<path class="st5" d="M459.43,645.77H211.82v-66.05c0-2.31,1.88-4.19,4.19-4.19h239.23c2.31,0,4.19,1.88,4.19,4.19V645.77z"/>
			<path class="st11" d="M441.13,623.91l-8.27-8.93c2.24-2.74,3.63-6.19,3.63-9.99c0-8.77-7.14-15.9-15.91-15.9
				c-8.77,0-15.9,7.14-15.9,15.9c0,8.77,7.14,15.91,15.9,15.91c2.96,0,5.69-0.86,8.07-2.28l8.4,9.07c0.55,0.59,1.29,0.89,2.04,0.89
				c0.68,0,1.35-0.25,1.89-0.74C442.11,626.8,442.18,625.04,441.13,623.91z M410.24,604.99c0-5.7,4.64-10.34,10.34-10.34
				c5.71,0,10.35,4.64,10.35,10.34c0,5.71-4.64,10.35-10.35,10.35C414.88,615.34,410.24,610.69,410.24,604.99z"/>
			<path class="st11" d="M408.53,634.75H233.28c-2.05,0-3.71-1.66-3.71-3.71c0-2.05,1.66-3.71,3.71-3.71h175.24
				c2.05,0,3.71,1.66,3.71,3.71C412.23,633.09,410.57,634.75,408.53,634.75z"/>
			<rect x="297.43" y="685.73" class="st11" width="146.86" height="9.46"/>
			<rect x="297.43" y="707.73" class="st11" width="109.26" height="9.46"/>
			<rect x="297.43" y="769.57" class="st11" width="146.86" height="9.46"/>
			<rect x="297.43" y="791.57" class="st11" width="109.26" height="9.46"/>
			<rect x="297.43" y="860.15" class="st11" width="146.86" height="9.46"/>
			<rect x="297.43" y="882.14" class="st11" width="109.26" height="9.46"/>
			<path class="st5" d="M474.08,968.58H202.97c-2.29,0-4.15-1.86-4.15-4.15v-20.66c0-2.29,1.86-4.15,4.15-4.15h271.11
				c2.29,0,4.15,1.86,4.15,4.15v20.66C478.23,966.72,476.37,968.58,474.08,968.58z"/>
			<rect x="229.58" y="666.34" class="st11" width="51.42" height="49.31"/>
			<rect x="229.58" y="752.35" class="st11" width="51.42" height="49.31"/>
			<rect x="229.58" y="842.3" class="st11" width="51.42" height="49.31"/>
		</g>
		<g>
			<path class="st18" d="M143.97,906.69c-17.07,0-30.96-13.89-30.96-30.96V509.67c0-16.07,13.07-29.15,29.15-29.15h1.81
				c16.07,0,29.15,13.07,29.15,29.15v130.87c0,10.86,8.84,19.7,19.7,19.7h1.21c10.86,0,19.7-8.84,19.7-19.7V459.62
				c0-16.07,13.08-29.15,29.15-29.15s29.15,13.07,29.15,29.15v91.97c0,2.61-2.12,4.72-4.72,4.72c-2.61,0-4.72-2.12-4.72-4.72v-91.97
				c0-10.86-8.84-19.7-19.7-19.7s-19.7,8.84-19.7,19.7v180.92c0,16.07-13.07,29.15-29.15,29.15h-1.21
				c-16.07,0-29.15-13.07-29.15-29.15V509.67c0-10.86-8.84-19.7-19.7-19.7h-1.81c-10.86,0-19.7,8.84-19.7,19.7v366.06
				c0,11.86,9.65,21.51,21.51,21.51c11.86,0,21.51-9.65,21.51-21.51v-49.15c0-2.61,2.12-4.72,4.72-4.72c2.61,0,4.72,2.12,4.72,4.72
				v49.15C174.92,892.8,161.04,906.69,143.97,906.69z"/>
		</g>
		<path class="st31" d="M278.86,575.53h-23.57V541.2c0-0.57,0.46-1.03,1.03-1.03h21.51c0.57,0,1.03,0.46,1.03,1.03V575.53z"/>
		<circle class="st31" cx="170.2" cy="826.58" r="19"/>
		<path class="st17" d="M816.34,921.81c14.5-10.43,23.97-27.4,23.97-46.62v-60.42H725.43v16.64c-16.31,0.24-29.52,13.58-29.52,29.95
			c0,16.52,13.44,29.97,29.97,29.97h1.89c3.64,12.44,11.37,23.1,21.63,30.49h-58.95c0,10.82,8.78,19.6,19.6,19.6h140.21
			c10.82,0,19.6-8.77,19.6-19.6H816.34z M708.51,861.36c0-9.43,7.55-17.11,16.92-17.35v31.19c0,1.19,0.11,2.35,0.18,3.52
			C716.16,878.57,708.51,870.84,708.51,861.36z"/>
		<g>
			<path class="st51" d="M956.41,961.01c0,0,1.93,9.77-0.96,12.99c-2.89,3.22-12.28,11.25-12.28,11.25l3.49,6.93
				c0,0,13.97-2.6,23.72-17.31c0.36-5.32-1.2-15.83-1.2-15.83L956.41,961.01z"/>
			<path class="st63" d="M971.24,958.75c0.19,0.62,6.48,3.54,6.97,9.36c0.48,5.81,0,22.71,0,22.71l-3.96,0.8l-2.44-11.2
				c0,0-3.92,12.25-17.79,15.34c-11.98,2.67-19.58,2.69-20.66-0.9s4.15-7.17,12.04-11.52c2.72,3.28,6.57,7.24,17.89-2.16
				c3.73-3.83,8.31-7.17,5.18-18.18C968.38,959.15,971.24,958.75,971.24,958.75z"/>
			<path class="st63" d="M1031.32,837.61l-12.94,33.01l-58.18,6.16l15.33,86.01l-20.5,2.7c0,0-42.07-95.98-32.65-115.19
				c6.95-14.16,111.05-26.92,111.05-26.92L1031.32,837.61z"/>
			<path class="st51" d="M1002.36,976.79c0,0,4.45,21.28,0,29.16c3.13,3.72,4.94,4.05,4.94,4.05s15.29-5.07,12.28-25.56
				c-0.6-5.85-3.94-12.27-8.41-13.85S1002.36,976.79,1002.36,976.79z"/>
			<path class="st63" d="M1013.8,970.38c0,0,8.43,0.77,11.68,7.98c3.25,7.21,5.9,13.51,5.9,13.51l-3.61,2.03l-6.26-7.88
				c0,0,4.33,23.76-9.51,30.06c-9.75,3.49-15.41,4.28-16.49,1.8c-1.08-2.48,1.71-9.51,8.14-15.45c5.59,1.94,14.13,1.26,11-23.17
				C1013.56,973.41,1013.8,970.38,1013.8,970.38z"/>
			<path class="st64" d="M1067.59,818.1c0,0,8.41,55.8-20.75,67.08c-29.17,11.28-53.99,18.8-53.99,18.8l29.24,68.77l-19.67,8.93
				l-45.37-73.58c-2.81-7.82-6.16-17.94,2.71-24.92l52.81-29.8l14.46-18.98L1067.59,818.1z"/>
			<linearGradient id="SVGID_4_" gradientUnits="userSpaceOnUse" x1="1009.3891" y1="728.7725" x2="1092.2554" y2="728.7725">
				<stop  offset="0" style="stop-color:#202875"/>
				<stop  offset="1" style="stop-color:#140944"/>
			</linearGradient>
			<path class="st21" d="M1058.52,684.23c0,0-3.07,16.93,14,30.29s38.58,37.72-10.44,59.99c-33.52-2.38-57.28-15.18-51.95-37.72
				s7.67-17.52,1.66-38.02C1017.81,676.81,1058.52,684.23,1058.52,684.23z"/>
			<path class="st51" d="M1060.28,691.29c-0.17-0.37-3.03-1.5-6.11-2.63c-0.49-3.3-1.09-5.47-1.09-5.47
				c-2.67-15.15-20.05-13.81-25.1-12.47c-5.05,1.34-12.33,4.6-12.77,18.86c-0.45,14.26,0.74,23.02,10.39,29.85
				c9.65,6.83-2.67,25.99-2.67,25.99l21.24,2.82c0,0-2.08-7.42-2.08-14.11c0-6.68,0-11.88,2.97-13.96c2.51-1.85,4.36-4.11,5.79-6.56
				c1.15-0.55,2.46-1.14,3.96-1.76C1061.72,706.05,1060.65,692.1,1060.28,691.29z"/>
			<linearGradient id="SVGID_5_" gradientUnits="userSpaceOnUse" x1="1007.192" y1="689.5377" x2="1062.6868" y2="689.5377">
				<stop  offset="0" style="stop-color:#202875"/>
				<stop  offset="1" style="stop-color:#140944"/>
			</linearGradient>
			<path class="st30" d="M1008.9,718.46c0,0,6.09-13.22,6.76-30.29c0.2-4.37,1.71-8.02,4.97-10.02
				c1.86,7.57,15.07,22.57,31.26,18.27c2.89-1.05,5.2-2.82,5.79-0.15s0.49,9.21-2.87,15.59c6.29-5.64,8.96-16.48,7.48-32.97
				c-1.48-16.48-15.59-18.41-23.91-18.27s-15.44,2.67-19.01,8.46c-6.24-1.78-16.19,6.09-10.47,28.21
				C1010.16,701.31,1011.65,710.96,1008.9,718.46z"/>
			<path class="st18" d="M1085.52,765.02c0.13-31.53-33.7-33.57-44.13-33.26c-8.52,7.64-11.86,0-11.86,0
				c-53.68-7.71-49.33,50.11-49.33,50.11l7.07,52.46c0,0,3.31,0,8.53,0l-4.19,1.44c0,0,14.34,12.71,27.5,9.76
				c13.17-2.95,48.88,11.42,53.83,8.49c3.01-1.78,2.36-18.5,1.38-31.34C1083.96,809.03,1085.43,785.66,1085.52,765.02z"/>
			<path class="st51" d="M1044.37,834.29l-3.81-15.5c0,0-5.58,2.36-13.74,0.05c-8.15-2.31-18.62,0.68-19.57,11.14
				c-0.14,4.08,0.27,6.8,4.21,6.52c3.94-0.27,25.69,0.14,28.13-0.68C1042.04,835.01,1044.37,834.29,1044.37,834.29z"/>
			<path class="st186" d="M1061.74,767.01c0,0,2.06,30.08-2.23,35.88c-4.29,5.8-10.81,11.23-10.81,11.23
				S1058.84,808.33,1061.74,767.01z"/>
			<path class="st186" d="M1003.94,759.64c0,0-3.26,11.3-3.62,23.05c-0.36,11.74,6.16,4.5,6.16,4.5S1003.39,764.72,1003.94,759.64z"
				/>
			<rect x="992.83" y="836.05" class="st11" width="57.87" height="8.1"/>
			<path class="st5" d="M997.03,844.15h-77.07c-0.38,0-0.69-0.31-0.69-0.69v-6.49c0-0.38,0.31-0.69,0.69-0.69h77.07
				c0.38,0,0.69,0.31,0.69,0.69v6.49C997.73,843.84,997.42,844.15,997.03,844.15z"/>
			<linearGradient id="SVGID_6_" gradientUnits="userSpaceOnUse" x1="912.0165" y1="805.0527" x2="1006.696" y2="805.0527">
				<stop  offset="0" style="stop-color:#405AB1"/>
				<stop  offset="1" style="stop-color:#0B1066"/>
			</linearGradient>
			<path class="st32" d="M1005.83,838.44h-92.96c-0.48,0-0.86-0.39-0.86-0.86v-65.05c0-0.48,0.39-0.86,0.86-0.86h92.96
				c0.48,0,0.86,0.39,0.86,0.86v65.05C1006.7,838.05,1006.31,838.44,1005.83,838.44z"/>
			<path class="st11" d="M973.4,805.05h-34.72c-0.32,0-0.58-0.26-0.58-0.58v-5.41c0-0.32,0.26-0.58,0.58-0.58h34.72
				c0.32,0,0.58,0.26,0.58,0.58v5.41C973.98,804.79,973.72,805.05,973.4,805.05z"/>
		</g>
		<circle class="st0" cx="669.64" cy="326.89" r="9.65"/>
		<circle class="st0" cx="702.61" cy="326.89" r="9.65"/>
		<circle class="st0" cx="735.58" cy="326.89" r="9.65"/>
	</g>
</g>
<g id="图层_2">
</g>
</svg>
